<?xml version="1.0" encoding="UTF-8" standalone="no"?>
<!-- Created with Inkscape (http://www.inkscape.org/) -->

<svg
   xmlns:dc="http://purl.org/dc/elements/1.1/"
   xmlns:cc="http://creativecommons.org/ns#"
   xmlns:rdf="http://www.w3.org/1999/02/22-rdf-syntax-ns#"
   xmlns:svg="http://www.w3.org/2000/svg"
   xmlns="http://www.w3.org/2000/svg"
   xmlns:sodipodi="http://sodipodi.sourceforge.net/DTD/sodipodi-0.dtd"
   xmlns:inkscape="http://www.inkscape.org/namespaces/inkscape"
   width="1052.3622"
   height="744.09448"
   id="svg2"
   version="1.1"
   inkscape:version="0.48+devel r9772"
   sodipodi:docname="biquadretta.svg">
  <defs
     id="defs4" />
  <sodipodi:namedview
     id="base"
     pagecolor="#ffffff"
     bordercolor="#666666"
     borderopacity="1.0"
     inkscape:pageopacity="0.0"
     inkscape:pageshadow="2"
     inkscape:zoom="0.85069842"
     inkscape:cx="526.18109"
     inkscape:cy="372.04724"
     inkscape:document-units="px"
     inkscape:current-layer="layer1"
     showgrid="false"
     inkscape:window-width="1440"
     inkscape:window-height="851"
     inkscape:window-x="0"
     inkscape:window-y="1"
     inkscape:window-maximized="1" />
  <metadata
     id="metadata7">
    <rdf:RDF>
      <cc:Work
         rdf:about="">
        <dc:format>image/svg+xml</dc:format>
        <dc:type
           rdf:resource="http://purl.org/dc/dcmitype/StillImage" />
        <dc:title />
      </cc:Work>
    </rdf:RDF>
  </metadata>
  <g
     inkscape:label="Layer 1"
     inkscape:groupmode="layer"
     id="layer1"
     transform="translate(0,-308.2677)">
    <g
       id="g3895"
       transform="matrix(1.4044923,0,0,1.4044923,-224.52513,-237.3095)">
      <path
         inkscape:connector-curvature="0"
         id="path3077"
         d="m 353.64961,421.84472 c -10.18661,4.3e-4 -15.2817,7.30648 -15.28125,21.90625 -4.5e-4,7.80985 5.95943,13.25709 17.84375,16.3125 7.13011,2.0368 16.26372,3.03168 27.46875,3.03125 l 9.6875,28.53125 -2.53125,1.03125 13.75,38.71875 -38.21875,84.53125 c -2.25558,-0.94968 -4.52981,-1.84861 -6.8125,-2.6875 l -6.5,16.5625 c 2.06104,0.75724 4.12603,1.55059 6.1875,2.40625 l -64.6875,141.59375 148.71875,13.78125 c -0.3293,1.77443 -0.67511,3.5395 -1.0625,5.28125 l 17.375,1.5 c 0.35914,-1.74937 0.69304,-3.50424 1,-5.28125 l 45.84375,4.59375 173.15625,-207.28125 12.25,31.5625 c -2.68118,1.2098 -5.29111,2.51116 -7.875,3.84375 l 7.75,15.5 c 2.03323,-1.03105 4.10309,-2.05276 6.21875,-3.03125 l 41.28125,110 c 7.12966,19.01422 13.21874,28.53125 18.3125,28.53125 4.41336,0 6.62436,-2.05051 6.625,-6.125 l -11.71875,-29.03125 c -10.18683,-26.14455 -23.61319,-62.45161 -40.25,-108.96875 2.15237,-0.71746 4.29879,-1.41457 6.4375,-2.03125 l -6.375,-16.53125 c -1.88475,0.55227 -3.78458,1.12611 -5.65625,1.75 l -55,-151.78125 74.34375,0 0,-17.84375 -91.65625,0 0,17.84375 19.875,54.46875 -237.375,0 -10.15625,-28 -2.03125,1.53125 -9.6875,-25.96875 c 7.46967,-1.69727 16.79476,-5.60662 28,-11.71875 11.20437,-6.11129 16.81207,-10.34154 16.8125,-12.71875 -4.3e-4,-7.46944 -2.88451,-11.21832 -8.65625,-11.21875 -2.03769,0 -6.97207,0.51219 -14.78125,1.53125 -7.80964,1.01906 -14.05916,1.53168 -18.8125,1.53125 -4.07468,4.3e-4 -11.05981,-1.21653 -20.90625,-3.59375 -9.84687,-2.71502 -17.47383,-4.06207 -22.90625,-4.0625 z m 69.75,109.53125 236.84375,0 13.75,37.15625 -165.03125,197.09375 -85.5625,-234.25 z m -10.6875,22.375 81,220.53125 -30.5625,-2.53125 0,-5.9375 -17.8125,-1.71875 0,5.625 -124.28125,-11.71875 52.9375,-118.6875 c 1.70639,0.97509 3.35477,1.98987 5,3 l 7.875,-15.75 c -1.71478,-1.01959 -3.44615,-2.01398 -5.21875,-3 l 31.0625,-69.8125 z"
         style="font-size:48.41477966px;font-style:normal;font-variant:normal;font-weight:normal;font-stretch:normal;text-align:start;line-height:125%;letter-spacing:0px;word-spacing:0px;writing-mode:lr-tb;text-anchor:start;fill:#333333;fill-opacity:1;stroke:none;font-family:Webdings;-inkscape-font-specification:Webdings" />
      <g
         transform="translate(2,-8)"
         id="g3891">
        <rect
           style="fill:none;stroke:#333333;stroke-width:15;stroke-miterlimit:4;stroke-opacity:1;stroke-dasharray:none"
           id="rect3119"
           width="220.82275"
           height="220.82275"
           x="205.79938"
           y="664.53168" />
        <rect
           y="664.53168"
           x="638.38513"
           height="220.82275"
           width="220.82275"
           id="rect3889"
           style="fill:none;stroke:#333333;stroke-width:15;stroke-miterlimit:4;stroke-opacity:1;stroke-dasharray:none" />
      </g>
    </g>
  </g>
</svg>
